<svg id="visual" viewBox="0 0 960 540" width="960" height="540" xmlns="http://www.w3.org/2000/svg" xmlns:xlink="http://www.w3.org/1999/xlink" version="1.1"><rect x="0" y="0" width="960" height="540" fill="#dadde2"></rect><path d="M0 152L22.8 146.3C45.7 140.7 91.3 129.3 137 122.8C182.7 116.3 228.3 114.7 274 121.7C319.7 128.7 365.3 144.3 411.2 144.2C457 144 503 128 548.8 120.3C594.7 112.7 640.3 113.3 686 120.3C731.7 127.3 777.3 140.7 823 139.2C868.7 137.7 914.3 121.3 937.2 113.2L960 105L960 0L937.2 0C914.3 0 868.7 0 823 0C777.3 0 731.7 0 686 0C640.3 0 594.7 0 548.8 0C503 0 457 0 411.2 0C365.3 0 319.7 0 274 0C228.3 0 182.7 0 137 0C91.3 0 45.7 0 22.8 0L0 0Z" fill="#b1bdc5"></path><path d="M0 57L22.8 70.8C45.7 84.7 91.3 112.3 137 116.3C182.7 120.3 228.3 100.7 274 89.5C319.7 78.3 365.3 75.7 411.2 83C457 90.3 503 107.7 548.8 116.5C594.7 125.3 640.3 125.7 686 129.5C731.7 133.3 777.3 140.7 823 135.8C868.7 131 914.3 114 937.2 105.5L960 97L960 0L937.2 0C914.3 0 868.7 0 823 0C777.3 0 731.7 0 686 0C640.3 0 594.7 0 548.8 0C503 0 457 0 411.2 0C365.3 0 319.7 0 274 0C228.3 0 182.7 0 137 0C91.3 0 45.7 0 22.8 0L0 0Z" fill="#92a6ad"></path><path d="M0 91L22.8 87.8C45.7 84.7 91.3 78.3 137 78.5C182.7 78.7 228.3 85.3 274 80.3C319.7 75.3 365.3 58.7 411.2 51.3C457 44 503 46 548.8 49.3C594.7 52.7 640.3 57.3 686 68.2C731.7 79 777.3 96 823 96.7C868.7 97.3 914.3 81.7 937.2 73.8L960 66L960 0L937.2 0C914.3 0 868.7 0 823 0C777.3 0 731.7 0 686 0C640.3 0 594.7 0 548.8 0C503 0 457 0 411.2 0C365.3 0 319.7 0 274 0C228.3 0 182.7 0 137 0C91.3 0 45.7 0 22.8 0L0 0Z" fill="#749094"></path><path d="M0 67L22.8 71.2C45.7 75.3 91.3 83.7 137 77.3C182.7 71 228.3 50 274 47.3C319.7 44.7 365.3 60.3 411.2 64.2C457 68 503 60 548.8 51.2C594.7 42.3 640.3 32.7 686 34.8C731.7 37 777.3 51 823 56.2C868.7 61.3 914.3 57.7 937.2 55.8L960 54L960 0L937.2 0C914.3 0 868.7 0 823 0C777.3 0 731.7 0 686 0C640.3 0 594.7 0 548.8 0C503 0 457 0 411.2 0C365.3 0 319.7 0 274 0C228.3 0 182.7 0 137 0C91.3 0 45.7 0 22.8 0L0 0Z" fill="#597b78"></path><path d="M0 43L22.8 38.8C45.7 34.7 91.3 26.3 137 26.3C182.7 26.3 228.3 34.7 274 35.8C319.7 37 365.3 31 411.2 29.2C457 27.3 503 29.7 548.8 27.7C594.7 25.7 640.3 19.3 686 23.5C731.7 27.7 777.3 42.3 823 46.3C868.7 50.3 914.3 43.7 937.2 40.3L960 37L960 0L937.2 0C914.3 0 868.7 0 823 0C777.3 0 731.7 0 686 0C640.3 0 594.7 0 548.8 0C503 0 457 0 411.2 0C365.3 0 319.7 0 274 0C228.3 0 182.7 0 137 0C91.3 0 45.7 0 22.8 0L0 0Z" fill="#43655a"></path></svg>