<svg id="visual" viewBox="0 0 450 900" width="450" height="900" xmlns="http://www.w3.org/2000/svg" xmlns:xlink="http://www.w3.org/1999/xlink" version="1.1"><rect x="0" y="0" width="450" height="900" fill="#dadde2"></rect><path d="M0 162L10.7 153.3C21.3 144.7 42.7 127.3 64.2 113C85.7 98.7 107.3 87.3 128.8 97.7C150.3 108 171.7 140 193 151.8C214.3 163.7 235.7 155.3 257 162.8C278.3 170.3 299.7 193.7 321.2 202C342.7 210.3 364.3 203.7 385.8 193.5C407.3 183.3 428.7 169.7 439.3 162.8L450 156L450 0L439.3 0C428.7 0 407.3 0 385.8 0C364.3 0 342.7 0 321.2 0C299.7 0 278.3 0 257 0C235.7 0 214.3 0 193 0C171.7 0 150.3 0 128.8 0C107.3 0 85.7 0 64.2 0C42.7 0 21.3 0 10.7 0L0 0Z" fill="#b1bdc5"></path><path d="M0 60L10.7 69.8C21.3 79.7 42.7 99.3 64.2 107.7C85.7 116 107.3 113 128.8 104.7C150.3 96.3 171.7 82.7 193 77.3C214.3 72 235.7 75 257 93.7C278.3 112.3 299.7 146.7 321.2 144.8C342.7 143 364.3 105 385.8 92.8C407.3 80.7 428.7 94.3 439.3 101.2L450 108L450 0L439.3 0C428.7 0 407.3 0 385.8 0C364.3 0 342.7 0 321.2 0C299.7 0 278.3 0 257 0C235.7 0 214.3 0 193 0C171.7 0 150.3 0 128.8 0C107.3 0 85.7 0 64.2 0C42.7 0 21.3 0 10.7 0L0 0Z" fill="#92a6ad"></path><path d="M0 91L10.7 101.2C21.3 111.3 42.7 131.7 64.2 130.5C85.7 129.3 107.3 106.7 128.8 88.7C150.3 70.7 171.7 57.3 193 61.3C214.3 65.3 235.7 86.7 257 94.2C278.3 101.7 299.7 95.3 321.2 102.3C342.7 109.3 364.3 129.7 385.8 132.7C407.3 135.7 428.7 121.3 439.3 114.2L450 107L450 0L439.3 0C428.7 0 407.3 0 385.8 0C364.3 0 342.7 0 321.2 0C299.7 0 278.3 0 257 0C235.7 0 214.3 0 193 0C171.7 0 150.3 0 128.8 0C107.3 0 85.7 0 64.2 0C42.7 0 21.3 0 10.7 0L0 0Z" fill="#749094"></path><path d="M0 54L10.7 52.3C21.3 50.7 42.7 47.3 64.2 43.7C85.7 40 107.3 36 128.8 42C150.3 48 171.7 64 193 76.7C214.3 89.3 235.7 98.7 257 92.2C278.3 85.7 299.7 63.3 321.2 61.7C342.7 60 364.3 79 385.8 84.8C407.3 90.7 428.7 83.3 439.3 79.7L450 76L450 0L439.3 0C428.7 0 407.3 0 385.8 0C364.3 0 342.7 0 321.2 0C299.7 0 278.3 0 257 0C235.7 0 214.3 0 193 0C171.7 0 150.3 0 128.8 0C107.3 0 85.7 0 64.2 0C42.7 0 21.3 0 10.7 0L0 0Z" fill="#597b78"></path><path d="M0 59L10.7 56.7C21.3 54.3 42.7 49.7 64.2 46.5C85.7 43.3 107.3 41.7 128.8 46.5C150.3 51.3 171.7 62.7 193 62.7C214.3 62.7 235.7 51.3 257 41.7C278.3 32 299.7 24 321.2 28.7C342.7 33.3 364.3 50.7 385.8 54.3C407.3 58 428.7 48 439.3 43L450 38L450 0L439.3 0C428.7 0 407.3 0 385.8 0C364.3 0 342.7 0 321.2 0C299.7 0 278.3 0 257 0C235.7 0 214.3 0 193 0C171.7 0 150.3 0 128.8 0C107.3 0 85.7 0 64.2 0C42.7 0 21.3 0 10.7 0L0 0Z" fill="#43655a"></path></svg>