<?xml version="1.0" encoding="UTF-8" standalone="no"?>
<!-- Created with Inkscape (http://www.inkscape.org/) -->

<svg
   xmlns:dc="http://purl.org/dc/elements/1.1/"
   xmlns:cc="http://creativecommons.org/ns#"
   xmlns:rdf="http://www.w3.org/1999/02/22-rdf-syntax-ns#"
   xmlns:svg="http://www.w3.org/2000/svg"
   xmlns="http://www.w3.org/2000/svg"
   xmlns:xlink="http://www.w3.org/1999/xlink"
   xmlns:sodipodi="http://sodipodi.sourceforge.net/DTD/sodipodi-0.dtd"
   xmlns:inkscape="http://www.inkscape.org/namespaces/inkscape"
   width="24"
   height="24"
   viewBox="0 0 6.3499999 6.3500002"
   version="1.1"
   id="svg8"
   inkscape:version="0.92.4 (5da689c313, 2019-01-14)"
   sodipodi:docname="11. Bulb Idea Light.svg">
  <defs
     id="defs2">
    <linearGradient
       inkscape:collect="always"
       id="linearGradient848">
      <stop
         style="stop-color:#ff1493;stop-opacity:1"
         offset="0"
         id="stop844" />
      <stop
         style="stop-color:#8a2be2;stop-opacity:1"
         offset="1"
         id="stop846" />
    </linearGradient>
    <pattern
       y="0"
       x="0"
       height="6"
       width="6"
       patternUnits="userSpaceOnUse"
       id="EMFhbasepattern" />
    <pattern
       y="0"
       x="0"
       height="6"
       width="6"
       patternUnits="userSpaceOnUse"
       id="EMFhbasepattern-3" />
    <pattern
       y="0"
       x="0"
       height="6"
       width="6"
       patternUnits="userSpaceOnUse"
       id="EMFhbasepattern-2" />
    <pattern
       y="0"
       x="0"
       height="6"
       width="6"
       patternUnits="userSpaceOnUse"
       id="EMFhbasepattern-1" />
    <pattern
       y="0"
       x="0"
       height="6"
       width="6"
       patternUnits="userSpaceOnUse"
       id="EMFhbasepattern-5" />
    <linearGradient
       inkscape:collect="always"
       xlink:href="#linearGradient848"
       id="linearGradient850"
       x1="1.4632193"
       y1="291.47681"
       x2="4.8537078"
       y2="296.15662"
       gradientUnits="userSpaceOnUse" />
  </defs>
  <sodipodi:namedview
     id="base"
     pagecolor="#ffffff"
     bordercolor="#666666"
     borderopacity="1.0"
     inkscape:pageopacity="0.0"
     inkscape:pageshadow="2"
     inkscape:zoom="15.999999"
     inkscape:cx="5.9659352"
     inkscape:cy="10.6802"
     inkscape:document-units="px"
     inkscape:current-layer="layer1"
     showgrid="false"
     units="px"
     inkscape:window-width="1280"
     inkscape:window-height="658"
     inkscape:window-x="-8"
     inkscape:window-y="-8"
     inkscape:window-maximized="1"
     showguides="true"
     guidecolor="#af0000"
     guideopacity="0.49803922"
     guidehicolor="#ff4b4b"
     guidehiopacity="0.49803922"
     inkscape:snap-global="true">
    <inkscape:grid
       type="xygrid"
       id="grid815"
       empspacing="1"
       originx="0"
       originy="0"
       spacingx="0"
       spacingy="0"
       snapvisiblegridlinesonly="true"
       visible="true"
       enabled="true"
       dotted="false" />
  </sodipodi:namedview>
  <metadata
     id="metadata5">
    <rdf:RDF>
      <cc:Work
         rdf:about="">
        <dc:format>image/svg+xml</dc:format>
        <dc:type
           rdf:resource="http://purl.org/dc/dcmitype/StillImage" />
        <dc:title />
      </cc:Work>
    </rdf:RDF>
  </metadata>
  <g
     inkscape:label="Guides"
     inkscape:groupmode="layer"
     id="layer1"
     transform="translate(0,-290.64999)">
    <path
       style="color:#000000;font-style:normal;font-variant:normal;font-weight:normal;font-stretch:normal;font-size:medium;line-height:normal;font-family:sans-serif;font-variant-ligatures:normal;font-variant-position:normal;font-variant-caps:normal;font-variant-numeric:normal;font-variant-alternates:normal;font-feature-settings:normal;text-indent:0;text-align:start;text-decoration:none;text-decoration-line:none;text-decoration-style:solid;text-decoration-color:#000000;letter-spacing:normal;word-spacing:normal;text-transform:none;writing-mode:lr-tb;direction:ltr;text-orientation:mixed;dominant-baseline:auto;baseline-shift:baseline;text-anchor:start;white-space:normal;shape-padding:0;clip-rule:nonzero;display:inline;overflow:visible;visibility:visible;opacity:1;isolation:auto;mix-blend-mode:normal;color-interpolation:sRGB;color-interpolation-filters:linearRGB;solid-color:#000000;solid-opacity:1;vector-effect:none;fill:#b1b1b1;fill-opacity:1;fill-rule:nonzero;stroke:none;stroke-width:0.26458335;stroke-linecap:round;stroke-linejoin:round;stroke-miterlimit:4;stroke-dasharray:none;stroke-dashoffset:0;stroke-opacity:1;paint-order:normal;color-rendering:auto;image-rendering:auto;shape-rendering:auto;text-rendering:auto;enable-background:accumulate"
       d="m 3.1757812,294.82227 c -0.3320606,0 -0.6035156,0.27101 -0.6035156,0.60351 0,0.33251 0.271455,0.60547 0.6035156,0.60547 0.3320607,0 0.6015625,-0.27296 0.6015626,-0.60547 0,-0.3325 -0.2695019,-0.60351 -0.6015626,-0.60351 z"
       id="rect1071"
       inkscape:connector-curvature="0"
       sodipodi:nodetypes="sssss" />
    <path
       style="color:#000000;font-style:normal;font-variant:normal;font-weight:normal;font-stretch:normal;font-size:medium;line-height:normal;font-family:sans-serif;font-variant-ligatures:normal;font-variant-position:normal;font-variant-caps:normal;font-variant-numeric:normal;font-variant-alternates:normal;font-feature-settings:normal;text-indent:0;text-align:start;text-decoration:none;text-decoration-line:none;text-decoration-style:solid;text-decoration-color:#000000;letter-spacing:normal;word-spacing:normal;text-transform:none;writing-mode:lr-tb;direction:ltr;text-orientation:mixed;dominant-baseline:auto;baseline-shift:baseline;text-anchor:start;white-space:normal;shape-padding:0;clip-rule:nonzero;display:inline;overflow:visible;visibility:visible;opacity:1;isolation:auto;mix-blend-mode:normal;color-interpolation:sRGB;color-interpolation-filters:linearRGB;solid-color:#000000;solid-opacity:1;vector-effect:none;fill:#808080;fill-opacity:1;fill-rule:nonzero;stroke:none;stroke-width:0.26458335;stroke-linecap:round;stroke-linejoin:miter;stroke-miterlimit:4;stroke-dasharray:none;stroke-dashoffset:0;stroke-opacity:1;paint-order:normal;color-rendering:auto;image-rendering:auto;shape-rendering:auto;text-rendering:auto;enable-background:accumulate"
       d="m 2.9101562,295.88281 c -0.033946,0 -0.065155,0.003 -0.097656,0.0117 -0.016251,0.005 -0.031751,0.0103 -0.054687,0.0254 -0.011468,0.008 -0.02519,0.0182 -0.039063,0.0371 -0.00694,0.009 -0.019235,0.0343 -0.019531,0.0352 -2.96e-4,8.1e-4 -0.00781,0.046 -0.00781,0.0469 0,8.4e-4 0.00752,0.048 0.00781,0.0488 2.959e-4,8.1e-4 0.012595,0.0257 0.019531,0.0352 0.013872,0.0189 0.027595,0.0296 0.039063,0.0371 0.022936,0.0151 0.038437,0.0189 0.054687,0.0234 0.032501,0.009 0.06371,0.0137 0.097656,0.0137 h 0.5292969 c 0.033946,0 0.065155,-0.005 0.097656,-0.0137 0.016251,-0.005 0.031751,-0.008 0.054687,-0.0234 0.011468,-0.008 0.02519,-0.0182 0.039063,-0.0371 0.00694,-0.009 0.019235,-0.0343 0.019531,-0.0352 2.959e-4,-8.1e-4 0.00781,-0.048 0.00781,-0.0488 0,-8.3e-4 -0.00752,-0.0461 -0.00781,-0.0469 -2.959e-4,-8.2e-4 -0.012595,-0.0257 -0.019531,-0.0352 -0.013872,-0.0189 -0.027594,-0.0296 -0.039063,-0.0371 -0.022936,-0.0151 -0.038437,-0.0209 -0.054687,-0.0254 -0.032501,-0.009 -0.06371,-0.0117 -0.097656,-0.0117 z"
       id="rect1079"
       inkscape:connector-curvature="0" />
    <path
       style="color:#000000;font-style:normal;font-variant:normal;font-weight:normal;font-stretch:normal;font-size:medium;line-height:normal;font-family:sans-serif;font-variant-ligatures:normal;font-variant-position:normal;font-variant-caps:normal;font-variant-numeric:normal;font-variant-alternates:normal;font-feature-settings:normal;text-indent:0;text-align:start;text-decoration:none;text-decoration-line:none;text-decoration-style:solid;text-decoration-color:#000000;letter-spacing:normal;word-spacing:normal;text-transform:none;writing-mode:lr-tb;direction:ltr;text-orientation:mixed;dominant-baseline:auto;baseline-shift:baseline;text-anchor:start;white-space:normal;shape-padding:0;clip-rule:nonzero;display:inline;overflow:visible;visibility:visible;opacity:1;isolation:auto;mix-blend-mode:normal;color-interpolation:sRGB;color-interpolation-filters:linearRGB;solid-color:#000000;solid-opacity:1;vector-effect:none;fill:#f6ec49;fill-opacity:1;fill-rule:nonzero;stroke:none;stroke-width:0.26458335;stroke-linecap:round;stroke-linejoin:round;stroke-miterlimit:4;stroke-dasharray:none;stroke-dashoffset:0;stroke-opacity:1;paint-order:normal;color-rendering:auto;image-rendering:auto;shape-rendering:auto;text-rendering:auto;enable-background:accumulate"
       d="m 3.1757812,291.45312 c -0.9449963,10e-6 -1.7128892,0.77765 -1.7128906,1.73047 5.946e-4,0.61152 0.33845,1.15679 0.8554688,1.4668 v 0.30469 c -2.81e-4,0.0735 0.059347,0.13309 0.1328125,0.13281 h 1.4472656 c 0.073466,2.8e-4 0.1330935,-0.0593 0.1328125,-0.13281 v -0.30274 c 0.5187014,-0.30993 0.8552982,-0.85591 0.8554688,-1.46875 -1.4e-6,-0.95282 -0.7659412,-1.73047 -1.7109376,-1.73047 z"
       id="circle1066"
       inkscape:connector-curvature="0"
       sodipodi:nodetypes="cccccccccc" />
    <path
       style="color:#000000;font-style:normal;font-variant:normal;font-weight:normal;font-stretch:normal;font-size:medium;line-height:normal;font-family:sans-serif;font-variant-ligatures:normal;font-variant-position:normal;font-variant-caps:normal;font-variant-numeric:normal;font-variant-alternates:normal;font-feature-settings:normal;text-indent:0;text-align:start;text-decoration:none;text-decoration-line:none;text-decoration-style:solid;text-decoration-color:#000000;letter-spacing:normal;word-spacing:normal;text-transform:none;writing-mode:lr-tb;direction:ltr;text-orientation:mixed;dominant-baseline:auto;baseline-shift:baseline;text-anchor:start;white-space:normal;shape-padding:0;clip-rule:nonzero;display:inline;overflow:visible;visibility:visible;opacity:1;isolation:auto;mix-blend-mode:normal;color-interpolation:sRGB;color-interpolation-filters:linearRGB;solid-color:#000000;solid-opacity:1;vector-effect:none;fill:#808080;fill-opacity:1;fill-rule:nonzero;stroke:none;stroke-width:0.26458335;stroke-linecap:round;stroke-linejoin:miter;stroke-miterlimit:4;stroke-dasharray:none;stroke-dashoffset:0;stroke-opacity:1;color-rendering:auto;image-rendering:auto;shape-rendering:auto;text-rendering:auto;enable-background:accumulate"
       d="m 2.5878906,295.57617 a 0.1323049,0.1323049 0 0 0 0.013672,0.26367 H 3.75 a 0.1323049,0.1323049 0 1 0 0,-0.26367 H 2.6015625 a 0.1323049,0.1323049 0 0 0 -0.013672,0 z"
       id="path1075"
       inkscape:connector-curvature="0" />
    <path
       style="color:#000000;font-style:normal;font-variant:normal;font-weight:normal;font-stretch:normal;font-size:medium;line-height:normal;font-family:sans-serif;font-variant-ligatures:normal;font-variant-position:normal;font-variant-caps:normal;font-variant-numeric:normal;font-variant-alternates:normal;font-feature-settings:normal;text-indent:0;text-align:start;text-decoration:none;text-decoration-line:none;text-decoration-style:solid;text-decoration-color:#000000;letter-spacing:normal;word-spacing:normal;text-transform:none;writing-mode:lr-tb;direction:ltr;text-orientation:mixed;dominant-baseline:auto;baseline-shift:baseline;text-anchor:start;white-space:normal;shape-padding:0;clip-rule:nonzero;display:inline;overflow:visible;visibility:visible;opacity:1;isolation:auto;mix-blend-mode:normal;color-interpolation:sRGB;color-interpolation-filters:linearRGB;solid-color:#000000;solid-opacity:1;vector-effect:none;fill:#808080;fill-opacity:1;fill-rule:nonzero;stroke:none;stroke-width:0.26458335;stroke-linecap:round;stroke-linejoin:miter;stroke-miterlimit:4;stroke-dasharray:none;stroke-dashoffset:0;stroke-opacity:1;color-rendering:auto;image-rendering:auto;shape-rendering:auto;text-rendering:auto;enable-background:accumulate"
       d="m 2.6015625,295.24414 a 0.132815,0.132815 0 1 0 0,0.26563 H 3.75 a 0.132815,0.132815 0 1 0 0,-0.26563 z"
       id="path1077"
       inkscape:connector-curvature="0" />
    <path
       style="color:#000000;font-style:normal;font-variant:normal;font-weight:normal;font-stretch:normal;font-size:medium;line-height:normal;font-family:sans-serif;font-variant-ligatures:normal;font-variant-position:normal;font-variant-caps:normal;font-variant-numeric:normal;font-variant-alternates:normal;font-feature-settings:normal;text-indent:0;text-align:start;text-decoration:none;text-decoration-line:none;text-decoration-style:solid;text-decoration-color:#000000;letter-spacing:normal;word-spacing:normal;text-transform:none;writing-mode:lr-tb;direction:ltr;text-orientation:mixed;dominant-baseline:auto;baseline-shift:baseline;text-anchor:start;white-space:normal;shape-padding:0;clip-rule:nonzero;display:inline;overflow:visible;visibility:visible;opacity:1;isolation:auto;mix-blend-mode:normal;color-interpolation:sRGB;color-interpolation-filters:linearRGB;solid-color:#000000;solid-opacity:1;vector-effect:none;fill:#f5cb22;fill-opacity:1;fill-rule:nonzero;stroke:none;stroke-width:1;stroke-linecap:round;stroke-linejoin:miter;stroke-miterlimit:4;stroke-dasharray:none;stroke-dashoffset:0;stroke-opacity:1;color-rendering:auto;image-rendering:auto;shape-rendering:auto;text-rendering:auto;enable-background:accumulate"
       d="M 11.996094 8.1074219 A 0.50005001 0.50005001 0 0 0 11.501953 8.6152344 L 11.501953 13.001953 A 0.50005001 0.50005001 0 1 0 12.498047 13.001953 L 12.498047 8.6152344 A 0.50005001 0.50005001 0 0 0 11.996094 8.1074219 z M 8.7460938 9.4335938 A 0.50005001 0.50005001 0 0 0 8.6953125 9.4355469 A 0.50005001 0.50005001 0 0 0 8.3046875 10.173828 L 10.328125 14.056641 A 0.50024493 0.50024493 0 1 0 11.212891 13.591797 L 9.1914062 9.7089844 A 0.50005001 0.50005001 0 0 0 8.7460938 9.4335938 z M 15.103516 9.4355469 A 0.50005001 0.50005001 0 0 0 14.667969 9.7089844 L 12.644531 13.591797 A 0.50024493 0.50024493 0 1 0 13.53125 14.056641 L 15.552734 10.173828 A 0.50005001 0.50005001 0 0 0 15.103516 9.4355469 z "
       transform="matrix(0.26458334,0,0,0.26458334,0,290.64999)"
       id="path1083" />
    <path
       inkscape:connector-curvature="0"
       style="color:#000000;font-style:normal;font-variant:normal;font-weight:normal;font-stretch:normal;font-size:medium;line-height:normal;font-family:sans-serif;font-variant-ligatures:normal;font-variant-position:normal;font-variant-caps:normal;font-variant-numeric:normal;font-variant-alternates:normal;font-feature-settings:normal;text-indent:0;text-align:start;text-decoration:none;text-decoration-line:none;text-decoration-style:solid;text-decoration-color:#000000;letter-spacing:normal;word-spacing:normal;text-transform:none;writing-mode:lr-tb;direction:ltr;text-orientation:mixed;dominant-baseline:auto;baseline-shift:baseline;text-anchor:start;white-space:normal;shape-padding:0;clip-rule:nonzero;display:inline;overflow:visible;visibility:visible;opacity:1;isolation:auto;mix-blend-mode:normal;color-interpolation:sRGB;color-interpolation-filters:linearRGB;solid-color:#000000;solid-opacity:1;vector-effect:none;fill:url(#linearGradient850);fill-opacity:1;fill-rule:nonzero;stroke:none;stroke-width:0.26458335;stroke-linecap:round;stroke-linejoin:round;stroke-miterlimit:4;stroke-dasharray:none;stroke-dashoffset:0;stroke-opacity:1;paint-order:normal;color-rendering:auto;image-rendering:auto;shape-rendering:auto;text-rendering:auto;enable-background:accumulate"
       d="m 3.176293,291.45279 c -0.9449963,1e-5 -1.7130723,0.77782 -1.7130737,1.73064 5.946e-4,0.61152 0.3382262,1.15657 0.855245,1.46658 v 0.30489 a 0.1323049,0.1323049 0 0 0 0.1328084,0.13281 h 0.2253091 c 0,0 -5.291e-4,5.3e-4 -5.291e-4,5.3e-4 -0.031865,0.0471 -0.054691,0.10037 -0.072347,0.15555 h -0.00207 a 0.132815,0.132815 0 0 0 -0.020671,0.26406 c 0.00322,0.0232 0.00712,0.0459 0.012919,0.0682 a 0.1323049,0.1323049 0 0 0 -0.00568,0 0.1323049,0.1323049 0 0 0 0.013436,0.26354 h 0.1374592 c 0.022521,0.0239 0.047295,0.0451 0.073381,0.0651 -0.00713,0.002 -0.013324,0.002 -0.023254,0.006 -0.00441,0.001 -0.00952,0.003 -0.015502,0.006 -0.00598,0.003 -0.022656,0.0115 -0.023254,0.0119 -6.085e-4,3.9e-4 -0.033288,0.0327 -0.03359,0.0331 -1.513e-4,2e-4 -0.017494,0.0329 -0.017571,0.0331 -7.62e-5,2.1e-4 -0.00775,0.0448 -0.00775,0.045 0,2.1e-4 0.00768,0.0468 0.00775,0.047 7.59e-5,2e-4 0.017417,0.0329 0.017571,0.0331 2.91e-4,4e-4 0.034542,0.0327 0.03514,0.0331 6.085e-4,4e-4 0.015745,0.009 0.021704,0.0119 0.00596,0.003 0.011115,0.004 0.015502,0.006 0.01755,0.006 0.028701,0.008 0.041341,0.0103 0.025278,0.004 0.053779,0.007 0.08785,0.01 0.068141,0.005 0.1580354,0.006 0.2578653,0.006 0.099807,0 0.1891972,-10e-4 0.2573486,-0.006 0.034076,-0.002 0.060975,-0.006 0.0863,-0.01 0.012663,-0.002 0.025268,-0.004 0.042892,-0.0103 0.00441,-10e-4 0.00745,-0.003 0.013435,-0.006 0.00598,-0.003 0.023175,-0.0115 0.02377,-0.0119 6.085e-4,-3.9e-4 0.032771,-0.0327 0.033073,-0.0331 1.513e-4,-2.1e-4 0.017494,-0.0329 0.017571,-0.0331 7.62e-5,-2.1e-4 0.00775,-0.0468 0.00775,-0.047 0,-2.1e-4 -0.00768,-0.0448 -0.00775,-0.045 -7.62e-5,-2.1e-4 -0.01742,-0.0329 -0.017571,-0.0331 -2.91e-4,-4e-4 -0.032475,-0.0327 -0.033073,-0.0331 -6.086e-4,-4e-4 -0.017814,-0.009 -0.02377,-0.0119 -0.00596,-0.003 -0.00904,-0.004 -0.013435,-0.006 -0.00975,-0.003 -0.016174,-0.004 -0.02377,-0.006 0.025998,-0.02 0.050955,-0.0412 0.073381,-0.0651 h 0.137976 a 0.1323049,0.1323049 0 1 0 0.0062,-0.26354 c 0.00575,-0.0223 0.00973,-0.045 0.01292,-0.0682 a 0.132815,0.132815 0 0 0 -0.019121,-0.26406 h -0.00362 c -0.017535,-0.0552 -0.040626,-0.10899 -0.072337,-0.15608 h 0.2242757 a 0.1323049,0.1323049 0 0 0 0.1328084,-0.13281 v -0.30282 c 0.5187013,-0.30993 0.8550743,-0.85581 0.8552449,-1.46865 -1.3e-6,-0.95282 -0.7654935,-1.73064 -1.7104899,-1.73064 z m 0,0.26562 c 0.8004738,0 1.446939,0.65368 1.4469401,1.46502 -1.527e-4,0.54905 -0.3031803,1.04975 -0.7849651,1.3007 a 0.1323049,0.1323049 0 0 0 -0.07028,0.11731 v 0.22272 H 3.1964468 c -0.00686,-2.3e-4 -0.013234,-0.002 -0.020153,-0.002 -0.00689,0 -0.013319,0.002 -0.020153,0.002 H 2.5840811 v -0.22272 a 0.1323049,0.1323049 0 0 0 -0.072347,-0.11731 c -0.4814597,-0.25079 -0.7844315,-0.75202 -0.784965,-1.3007 1.2e-6,-0.81134 0.6490501,-1.46502 1.4495239,-1.46502 z m -0.00206,1.07642 a 0.1323049,0.1323049 0 0 0 -0.1307415,0.13436 v 1.16065 a 0.1323049,0.1323049 0 1 0 0.2635499,0 v -1.16065 a 0.1323049,0.1323049 0 0 0 -0.1328116,-0.13436 z m -0.859899,0.35088 a 0.1323049,0.1323049 0 0 0 -0.013436,5.2e-4 0.1323049,0.1323049 0 0 0 -0.1033529,0.19533 l 0.535364,1.02733 A 0.13235647,0.13235647 0 1 0 2.9670035,294.2459 L 2.4321522,293.21857 A 0.1323049,0.1323049 0 0 0 2.31433,293.14567 Z m 1.6820679,5.2e-4 a 0.1323049,0.1323049 0 0 0 -0.1152385,0.0723 l -0.5353679,1.02733 a 0.13244705,0.13244705 0 1 0 0.234611,0.12299 l 0.534851,-1.02733 a 0.1323049,0.1323049 0 0 0 -0.1188556,-0.19533 z m -0.8412924,1.94148 h 0.042375 c 0.1117457,0.007 0.2024382,0.0681 0.2583823,0.15606 H 2.8946564 c 0.056503,-0.0881 0.148503,-0.14932 0.2604493,-0.15606 z m -0.3074747,0.42168 h 0.655257 c -0.00579,0.0238 -0.015497,0.0452 -0.025839,0.0667 H 2.8734681 c -0.010425,-0.0214 -0.019984,-0.0429 -0.025839,-0.0667 z"
       id="circle1066-4" />
  </g>
</svg>
